<svg width="81" height="80" viewBox="0 0 81 80" fill="none" xmlns="http://www.w3.org/2000/svg">
<path d="M65.5404 27.57C65.2504 25.57 64.8204 23.58 64.2604 21.62C62.3104 14.82 58.7104 8.4 53.4504 2.98C53.3104 2.83 53.1604 2.69 53.0204 2.54C52.3404 1.92 51.5204 1.45 50.6204 1.18C50.4204 1.13 50.2104 1.08 50.0004 1.03C47.0904 0.359999 44.0604 0 40.9404 0C38.2304 0 35.5704 0.270001 33.0104 0.790001C33.0104 0.790001 33.0104 0.790001 33.0004 0.790001C32.5604 0.870001 32.1504 0.960001 31.7804 1.06C31.7804 1.06 31.7804 1.06 31.7704 1.06C31.4304 1.15 31.1304 1.24 30.8504 1.32C30.8504 1.32 30.8404 1.32 30.8304 1.32C30.7304 1.36 30.6504 1.47 30.6504 1.59C30.6504 1.73 30.7504 1.84 30.8704 1.87C30.8904 1.87 30.9104 1.87 30.9404 1.87C31.9504 2 32.8204 2.16 32.9704 2.19C36.3704 2.92 39.7104 4.03 42.9104 5.54C46.3804 7.17 49.6804 9.26 52.7304 11.81C53.7804 12.69 54.8104 13.62 55.8004 14.61C58.6104 17.42 60.9804 20.51 62.9104 23.78C63.6704 25.07 64.3604 26.4 64.9904 27.74C64.9904 27.75 64.9904 27.76 65.0004 27.77C65.0504 27.86 65.1504 27.93 65.2604 27.93C65.4204 27.93 65.5404 27.81 65.5504 27.65C65.5504 27.65 65.5504 27.64 65.5504 27.63C65.5504 27.6 65.5504 27.57 65.5304 27.54L65.5404 27.57Z" fill="white"/>
<path d="M49.0302 14.08C47.4102 12.87 45.7002 11.76 43.9202 10.78C37.7302 7.34999 30.6402 5.35999 23.1002 5.23999C22.9002 5.23999 22.6902 5.23999 22.4902 5.23999C21.5702 5.27999 20.6602 5.51999 19.8302 5.97999C19.6502 6.08999 19.4702 6.19999 19.2902 6.30999C16.7602 7.88999 14.3602 9.77999 12.1602 11.98C10.2402 13.9 8.5602 15.97 7.1102 18.14C7.1102 18.14 7.1102 18.14 7.1102 18.15C6.8602 18.51 6.6302 18.87 6.4302 19.2V19.21C6.2502 19.51 6.10019 19.79 5.97019 20.04C5.97019 20.04 5.97019 20.05 5.97019 20.06C5.93019 20.17 5.9502 20.29 6.0302 20.38C6.1302 20.48 6.2802 20.49 6.3902 20.42C6.4102 20.41 6.4302 20.39 6.4402 20.38C7.2402 19.76 7.97019 19.25 8.10019 19.17C11.0202 17.28 14.1702 15.71 17.5002 14.51C21.1002 13.21 24.9202 12.36 28.8802 12C30.2502 11.88 31.6302 11.81 33.0302 11.81C37.0002 11.81 40.8602 12.32 44.5402 13.27C45.9902 13.65 47.4202 14.09 48.8102 14.6C48.8202 14.6 48.8302 14.6 48.8402 14.61C48.9402 14.64 49.0502 14.61 49.1302 14.54C49.2402 14.43 49.2402 14.25 49.1302 14.14C49.1302 14.14 49.0802 14.09 49.0502 14.07L49.0302 14.08Z" fill="white"/>
<path d="M28.5202 15.5901C26.5202 15.8801 24.5302 16.3101 22.5702 16.8701C15.7702 18.8201 9.35019 22.4201 3.93019 27.6801C3.78019 27.8201 3.64019 27.9701 3.49019 28.1101C2.87019 28.7901 2.40019 29.6101 2.13019 30.5101C2.08019 30.7101 2.03019 30.9201 1.98019 31.1301C1.31019 34.0401 0.950195 37.0701 0.950195 40.1901C0.950195 42.9001 1.22019 45.5601 1.74019 48.1201C1.74019 48.1201 1.74019 48.1201 1.74019 48.1301C1.82019 48.5701 1.91019 48.9801 2.01019 49.3501C2.01019 49.3501 2.01019 49.3501 2.01019 49.3601C2.10019 49.7001 2.19019 50.0001 2.2702 50.2801C2.2702 50.2801 2.2702 50.2901 2.2702 50.3001C2.31019 50.4001 2.4202 50.4801 2.5402 50.4801C2.6802 50.4801 2.79019 50.3801 2.82019 50.2601C2.82019 50.2401 2.82019 50.2201 2.82019 50.1901C2.95019 49.1801 3.11019 48.3101 3.14019 48.1601C3.87019 44.7601 4.98019 41.4201 6.49019 38.2201C8.12019 34.7501 10.2102 31.4501 12.7602 28.4001C13.6402 27.3501 14.5702 26.3201 15.5602 25.3301C18.3702 22.5201 21.4602 20.1501 24.7302 18.2201C26.0202 17.4601 27.3502 16.7701 28.6902 16.1401C28.7002 16.1401 28.7102 16.1401 28.7202 16.1301C28.8102 16.0801 28.8802 15.9801 28.8802 15.8701C28.8802 15.7101 28.7602 15.5901 28.6002 15.5801H28.5802C28.5802 15.5801 28.5202 15.5801 28.4902 15.6001L28.5202 15.5901Z" fill="white"/>
<path d="M14.7702 31.8099C13.5602 33.4299 12.4502 35.1399 11.4702 36.9199C8.04018 43.1099 6.05018 50.1999 5.93018 57.7399C5.93018 57.9399 5.93018 58.1499 5.93018 58.3499C5.97018 59.2699 6.21018 60.18 6.67018 61.01C6.78018 61.19 6.89018 61.37 7.00018 61.55C8.58018 64.08 10.4702 66.4799 12.6702 68.68C14.5902 70.5999 16.6602 72.28 18.8302 73.73H18.8402C19.2002 73.99 19.5602 74.2199 19.8902 74.4199H19.9002C20.2002 74.5999 20.4802 74.7499 20.7302 74.8799C20.7302 74.8799 20.7402 74.8799 20.7502 74.8799C20.8602 74.9199 20.9802 74.9 21.0702 74.82C21.1702 74.72 21.1802 74.57 21.1102 74.4599C21.1002 74.4399 21.0802 74.42 21.0702 74.41C20.4502 73.61 19.9402 72.88 19.8602 72.75C17.9702 69.8299 16.4002 66.6799 15.2002 63.3499C13.9002 59.7499 13.0502 55.93 12.6902 51.97C12.5702 50.6 12.5002 49.2199 12.5002 47.82C12.5002 43.8499 13.0102 39.9899 13.9602 36.3099C14.3402 34.8599 14.7802 33.43 15.2902 32.04C15.2902 32.03 15.2902 32.02 15.3002 32.01C15.3302 31.91 15.3002 31.8 15.2302 31.72C15.1202 31.61 14.9402 31.61 14.8302 31.72C14.8302 31.72 14.8302 31.72 14.8202 31.72C14.8002 31.74 14.7802 31.77 14.7702 31.8V31.8099Z" fill="white"/>
<path d="M16.3603 52.4301C16.6503 54.4301 17.0803 56.4201 17.6403 58.3801C19.5903 65.1801 23.1903 71.6001 28.4503 77.0201C28.5903 77.1701 28.7403 77.3101 28.8803 77.4601C29.5603 78.0801 30.3803 78.5501 31.2803 78.8201C31.4803 78.8701 31.6903 78.9201 31.9003 78.9701C34.8103 79.6401 37.8403 80.0001 40.9603 80.0001C43.6703 80.0001 46.3303 79.7301 48.8903 79.2101C48.8903 79.2101 48.8903 79.2101 48.9003 79.2101C49.3403 79.1301 49.7503 79.0401 50.1203 78.9401C50.4603 78.8501 50.7603 78.7601 51.0403 78.6701C51.0403 78.6701 51.0503 78.6701 51.0603 78.6701C51.1603 78.6301 51.2403 78.5201 51.2403 78.4001C51.2403 78.2601 51.1403 78.1501 51.0203 78.1201C51.0003 78.1201 50.9803 78.1201 50.9503 78.1201C49.9403 77.9901 49.0703 77.8301 48.9203 77.8001C45.5203 77.0701 42.1803 75.9601 38.9803 74.4501C35.5103 72.8201 32.2103 70.7301 29.1603 68.1801C28.1103 67.3001 27.0803 66.3701 26.0903 65.3801C23.2803 62.5701 20.9103 59.4801 18.9803 56.2101C18.2203 54.9201 17.5303 53.5901 16.9003 52.2501C16.9003 52.2401 16.9003 52.2301 16.8903 52.2201C16.8403 52.1301 16.7403 52.0601 16.6303 52.0601C16.4703 52.0601 16.3503 52.1801 16.3403 52.3401C16.3403 52.3401 16.3403 52.3501 16.3403 52.3601C16.3403 52.3901 16.3403 52.4201 16.3603 52.4501V52.4301Z" fill="white"/>
<path d="M32.87 65.92C34.49 67.13 36.2 68.24 37.98 69.22C44.17 72.65 51.26 74.64 58.8 74.76C59 74.76 59.21 74.76 59.41 74.76C60.33 74.72 61.24 74.48 62.07 74.02C62.25 73.91 62.43 73.8 62.61 73.69C65.14 72.11 67.54 70.22 69.74 68.02C71.66 66.1 73.34 64.03 74.79 61.86C74.79 61.86 74.79 61.86 74.79 61.85C75.04 61.49 75.27 61.13 75.47 60.8C75.65 60.5 75.8 60.21 75.93 59.96C75.93 59.96 75.93 59.95 75.93 59.94C75.97 59.83 75.95 59.71 75.87 59.62C75.77 59.52 75.62 59.51 75.51 59.58C75.49 59.59 75.47 59.61 75.46 59.62C74.66 60.24 73.93 60.75 73.8 60.83C70.88 62.72 67.73 64.29 64.4 65.49C60.8 66.79 56.98 67.64 53.02 68C51.65 68.12 50.27 68.19 48.87 68.19C44.9 68.19 41.04 67.68 37.36 66.73C35.91 66.35 34.48 65.91 33.09 65.4C33.08 65.4 33.07 65.4 33.06 65.39C32.96 65.36 32.85 65.39 32.77 65.46C32.66 65.57 32.66 65.75 32.77 65.86C32.8 65.89 32.82 65.9 32.85 65.92H32.87Z" fill="white"/>
<path d="M53.3903 64.41C55.3903 64.12 57.3803 63.69 59.3403 63.13C66.1403 61.18 72.5603 57.58 77.9803 52.32C78.1303 52.18 78.2703 52.03 78.4203 51.89C79.0403 51.21 79.5103 50.39 79.7803 49.49C79.8303 49.29 79.8803 49.08 79.9303 48.87C80.6003 45.96 80.9603 42.93 80.9603 39.81C80.9603 37.1 80.6903 34.44 80.1703 31.88C80.1703 31.88 80.1703 31.88 80.1703 31.87C80.0903 31.43 80.0003 31.02 79.9003 30.65C79.9003 30.65 79.9003 30.65 79.9003 30.64C79.8103 30.3 79.7203 30 79.6403 29.72C79.6403 29.72 79.6403 29.71 79.6403 29.7C79.6003 29.6 79.4903 29.52 79.3703 29.52C79.2303 29.52 79.1203 29.62 79.0903 29.74C79.0903 29.76 79.0903 29.78 79.0903 29.81C78.9603 30.82 78.8003 31.69 78.7703 31.84C78.0403 35.24 76.9303 38.58 75.4203 41.78C73.7903 45.25 71.7003 48.55 69.1503 51.6C68.2703 52.65 67.3403 53.68 66.3503 54.67C63.5403 57.48 60.4503 59.85 57.1803 61.78C55.8903 62.54 54.5603 63.23 53.2203 63.86C53.2103 63.86 53.2003 63.86 53.1903 63.87C53.1003 63.92 53.0303 64.02 53.0303 64.13C53.0303 64.29 53.1503 64.41 53.3103 64.42H53.3303C53.3303 64.42 53.3903 64.42 53.4203 64.4L53.3903 64.41Z" fill="white"/>
<path d="M67.14 48.1901C68.35 46.5701 69.46 44.8601 70.44 43.0801C73.87 36.8901 75.86 29.8001 75.98 22.2601C75.98 22.0601 75.98 21.8501 75.98 21.6501C75.94 20.7301 75.7 19.8201 75.24 18.9901C75.13 18.8101 75.02 18.6301 74.91 18.4501C73.33 15.9201 71.44 13.5201 69.24 11.3201C67.32 9.4001 65.25 7.7201 63.08 6.2701H63.07C62.71 6.0101 62.35 5.7801 62.02 5.5801H62.01C61.71 5.4001 61.43 5.2501 61.18 5.1201C61.18 5.1201 61.17 5.1201 61.16 5.1201C61.05 5.0801 60.93 5.1001 60.84 5.1801C60.74 5.2801 60.73 5.4301 60.8 5.5401C60.81 5.5601 60.83 5.5801 60.84 5.5901C61.46 6.3901 61.97 7.1201 62.05 7.2501C63.94 10.1701 65.51 13.3201 66.71 16.6501C68.01 20.2501 68.86 24.0701 69.22 28.0301C69.34 29.4001 69.41 30.7801 69.41 32.1801C69.41 36.1501 68.9 40.0101 67.95 43.6901C67.57 45.1401 67.13 46.5701 66.62 47.9601C66.62 47.9701 66.62 47.9801 66.61 47.9901C66.58 48.0901 66.61 48.2001 66.68 48.2801C66.79 48.3901 66.97 48.3901 67.08 48.2801H67.09C67.09 48.2801 67.13 48.2201 67.14 48.1901Z" fill="white"/>
</svg>
