<svg width="407" height="122" viewBox="0 0 407 122" fill="none" xmlns="http://www.w3.org/2000/svg">
<g clip-path="url(#clip0_108_26355)">
<path d="M403.02 23.55C403.48 23.35 403.78 22.88 403.78 22.33C403.78 21.6 403.19 21.01 402.46 21.01H400.98C400.98 21.01 400.91 21.04 400.91 21.08V25C400.91 25 400.94 25.07 400.98 25.07H401.34C401.34 25.07 401.41 25.04 401.41 25V23.65H402.52L403.49 25.04C403.49 25.04 403.52 25.07 403.55 25.07H403.95C403.95 25.07 404 25.06 404.01 25.03C404.02 25.01 404.02 24.98 404.01 24.96L403.03 23.55H403.02ZM402.46 23.15H401.4V21.51H402.46C402.91 21.51 403.28 21.88 403.28 22.33C403.28 22.78 402.91 23.15 402.46 23.15Z" fill="#393D3E"/>
<path d="M404.99 20.37C404.28 19.66 403.33 19.26 402.32 19.26C401.31 19.26 400.36 19.65 399.65 20.37C398.94 21.08 398.54 22.03 398.54 23.04C398.54 24.05 398.93 25 399.65 25.71C400.36 26.42 401.31 26.82 402.32 26.82C403.33 26.82 404.28 26.43 404.99 25.71C405.7 25 406.1 24.05 406.1 23.04C406.1 22.03 405.71 21.08 404.99 20.37ZM404.74 25.46C404.09 26.11 403.24 26.46 402.32 26.46C401.4 26.46 400.55 26.1 399.9 25.46C399.25 24.81 398.9 23.96 398.9 23.04C398.9 22.12 399.26 21.27 399.9 20.62C400.55 19.97 401.4 19.62 402.32 19.62C403.24 19.62 404.09 19.98 404.74 20.62C405.39 21.27 405.74 22.12 405.74 23.04C405.74 23.96 405.38 24.81 404.74 25.46Z" fill="#393D3E"/>
<path d="M251.15 20.02H218.19C217.75 20.02 217.33 20.22 217.05 20.57C217.05 20.57 217.05 20.58 217.04 20.59L216.95 20.71C216.95 20.71 216.95 20.71 216.95 20.72C216.81 20.95 216.74 21.21 216.74 21.48V26.58C216.74 26.74 216.87 26.86 217.02 26.86H230.67V61.21C230.67 61.37 230.8 61.49 230.95 61.49H236.64C237.12 61.49 237.51 61.1 237.51 60.62V26.86H249.98C250.78 26.86 251.44 26.21 251.44 25.4V20.3C251.44 20.14 251.31 20.02 251.16 20.02H251.15Z" fill="#393D3E"/>
<path d="M289.7 54.65H267.31V44.05H282.61C283.41 44.05 284.07 43.4 284.07 42.59V37.49C284.07 37.33 283.94 37.21 283.79 37.21H267.31V26.85H288.46C289.26 26.85 289.92 26.2 289.92 25.39V20.29C289.92 20.13 289.79 20.01 289.64 20.01H261.93C261.49 20.01 261.08 20.21 260.8 20.56C260.8 20.56 260.8 20.57 260.79 20.58L260.7 20.7C260.7 20.7 260.7 20.7 260.7 20.71C260.56 20.94 260.49 21.2 260.49 21.47V61.2C260.49 61.36 260.62 61.48 260.77 61.48H289.13C289.61 61.48 290 61.09 290 60.61V54.92C290 54.76 289.87 54.64 289.72 54.64L289.7 54.65Z" fill="#393D3E"/>
<path d="M381.61 20.58V20.56C381.61 20.56 381.58 20.5 381.56 20.48C381.56 20.48 381.56 20.46 381.55 20.46L381.47 20.35C381.47 20.35 381.45 20.32 381.44 20.31L381.39 20.26C381.39 20.26 381.39 20.26 381.38 20.25C381.22 20.11 381.02 20.03 380.8 20.03H376.23C375.97 20.03 375.72 20.15 375.55 20.36C375.55 20.36 375.55 20.37 375.54 20.38L375.5 20.44C375.5 20.44 375.5 20.44 375.5 20.45C375.49 20.47 375.48 20.49 375.46 20.52C375.46 20.52 375.46 20.53 375.46 20.54L359.01 61.12C358.97 61.21 358.99 61.31 359.04 61.38C359.09 61.46 359.18 61.5 359.27 61.5H364.98C365.53 61.5 366.03 61.19 366.28 60.7C366.32 60.63 366.35 60.55 366.37 60.48L370.39 50.57H386.68L390.7 60.48C390.72 60.55 390.75 60.62 390.79 60.69C391.04 61.19 391.54 61.5 392.09 61.5H397.8C397.89 61.5 397.98 61.45 398.03 61.38C398.08 61.3 398.09 61.2 398.06 61.12L381.63 20.59L381.61 20.58ZM373.14 43.72L378.51 30.47L383.88 43.72H373.14Z" fill="#393D3E"/>
<path d="M129.55 25.92C134.41 25.92 138.96 28.31 141.74 32.3L141.93 32.57C141.93 32.57 141.93 32.57 141.93 32.58C142.21 32.94 142.63 33.15 143.09 33.15C143.46 33.15 143.81 33.01 144.09 32.75L147.36 29.48C147.36 29.48 147.36 29.48 147.36 29.47C147.51 29.31 147.59 29.1 147.59 28.89C147.59 28.73 147.55 28.58 147.46 28.44C147.43 28.4 147.4 28.36 147.37 28.32L146.99 27.81C145.01 25.14 142.41 22.94 139.46 21.42C136.41 19.85 132.98 19.03 129.54 19.03C117.56 19.03 107.81 28.78 107.81 40.76C107.81 52.74 117.56 62.49 129.54 62.49C132.99 62.49 136.42 61.66 139.46 60.1C142.41 58.59 145.01 56.38 146.99 53.71L147.42 53.13C147.42 53.13 147.44 53.11 147.45 53.09C147.54 52.95 147.59 52.78 147.59 52.62C147.59 52.42 147.52 52.23 147.39 52.07C147.39 52.07 147.37 52.05 147.37 52.04C147.37 52.04 147.37 52.04 147.36 52.03L147.31 51.98C147.31 51.98 147.31 51.98 147.3 51.97C147.3 51.97 147.29 51.96 147.28 51.95L144.06 48.73H144.05C143.78 48.48 143.44 48.35 143.08 48.35C142.64 48.35 142.22 48.55 141.94 48.9C141.94 48.9 141.94 48.91 141.93 48.92L141.73 49.21C138.95 53.21 134.4 55.59 129.54 55.59C121.36 55.59 114.71 48.94 114.71 40.76C114.71 32.58 121.36 25.93 129.54 25.93L129.55 25.92Z" fill="#393D3E"/>
<path d="M189.91 58.52L181.5 46.07C183.55 44.95 185.27 43.28 186.47 41.22C187.73 39.05 188.4 36.51 188.4 33.86C188.4 26.23 182.19 20.02 174.56 20.02H159.9C159.46 20.02 159.04 20.22 158.76 20.57C158.76 20.57 158.76 20.58 158.75 20.59L158.66 20.71C158.66 20.71 158.66 20.71 158.66 20.72C158.52 20.95 158.45 21.21 158.45 21.48V61.21C158.45 61.37 158.58 61.49 158.73 61.49H163.83C164.63 61.49 165.29 60.84 165.29 60.03V47.7H174.58L182.76 59.4C183.61 60.66 185.05 61.48 186.68 61.48H190.59C190.59 61.48 190.62 61.48 190.64 61.48C190.66 61.48 190.67 61.48 190.69 61.48C191.09 61.45 191.4 61.12 191.4 60.72C191.4 60.52 191.32 60.34 191.19 60.2C190.71 59.61 189.91 58.52 189.91 58.52ZM174.56 40.82H165.39V26.9H174.56C176.41 26.9 178.15 27.63 179.47 28.95C180.79 30.27 181.52 32.02 181.52 33.86C181.52 35.7 180.79 37.45 179.47 38.77C178.15 40.09 176.4 40.82 174.56 40.82Z" fill="#393D3E"/>
<path d="M332.8 58.52L324.39 46.07C326.44 44.95 328.16 43.28 329.36 41.22C330.62 39.05 331.29 36.51 331.29 33.86C331.29 26.23 325.08 20.02 317.45 20.02H302.79C302.35 20.02 301.93 20.22 301.65 20.57C301.65 20.57 301.65 20.58 301.64 20.59L301.55 20.71C301.55 20.71 301.55 20.71 301.55 20.72C301.41 20.95 301.34 21.21 301.34 21.48V61.21C301.34 61.37 301.47 61.49 301.62 61.49H306.72C307.52 61.49 308.18 60.84 308.18 60.03V47.7H317.47L325.65 59.4C326.5 60.66 327.94 61.48 329.57 61.48H333.48C333.48 61.48 333.51 61.48 333.53 61.48C333.55 61.48 333.56 61.48 333.58 61.48C333.98 61.45 334.29 61.12 334.29 60.72C334.29 60.52 334.21 60.34 334.08 60.2C333.6 59.61 332.8 58.52 332.8 58.52ZM317.44 40.82H308.27V26.9H317.44C319.29 26.9 321.03 27.63 322.35 28.95C323.67 30.27 324.4 32.02 324.4 33.86C324.4 35.7 323.67 37.45 322.35 38.77C321.03 40.09 319.28 40.82 317.44 40.82Z" fill="#393D3E"/>
<path d="M200.87 33.86C200.87 33.86 200.87 33.93 200.88 33.96V33.75C200.88 33.75 200.87 33.82 200.87 33.85V33.86Z" fill="#393D3E"/>
<path d="M207.51 20.72C207.51 20.72 207.51 20.72 207.51 20.71L207.42 20.59V20.58C207.14 20.23 206.72 20.03 206.28 20.03H201.18C201.02 20.03 200.9 20.16 200.9 20.31V60.63C200.9 61.11 201.29 61.49 201.76 61.5H207.44C207.6 61.5 207.72 61.37 207.72 61.22V21.48C207.72 21.21 207.65 20.95 207.51 20.72Z" fill="#393D3E"/>
<path d="M350.4 20.72C350.4 20.72 350.4 20.72 350.4 20.71L350.31 20.59C350.31 20.59 350.31 20.58 350.3 20.57C350.02 20.22 349.61 20.02 349.16 20.02H344.06C343.9 20.02 343.78 20.15 343.78 20.3V38.61C343.78 38.61 343.77 38.68 343.77 38.71C343.77 38.74 343.77 38.78 343.78 38.81V60.62C343.78 61.1 344.17 61.48 344.64 61.49H350.32C350.48 61.49 350.6 61.36 350.6 61.21V21.48C350.6 21.21 350.53 20.95 350.39 20.72H350.4Z" fill="#393D3E"/>
<path d="M350.33 38.51C350.18 38.51 350.05 38.63 350.05 38.79C350.05 38.95 350.17 39.06 350.31 39.07C350.32 39.07 350.33 39.07 350.35 39.07C350.49 39.06 350.61 38.94 350.61 38.8C350.61 38.65 350.49 38.52 350.33 38.52V38.51Z" fill="#393D3E"/>
<path d="M64.5902 27.57C64.3002 25.57 63.8702 23.58 63.3102 21.62C61.3602 14.82 57.7602 8.4 52.5002 2.98C52.3602 2.83 52.2102 2.69 52.0702 2.54C51.3902 1.92 50.5702 1.45 49.6702 1.18C49.4702 1.13 49.2602 1.08 49.0502 1.03C46.1402 0.36 43.1102 0 39.9902 0C37.2802 0 34.6202 0.27 32.0602 0.79C32.0602 0.79 32.0602 0.79 32.0502 0.79C31.6102 0.87 31.2002 0.96 30.8302 1.06C30.8302 1.06 30.8302 1.06 30.8202 1.06C30.4802 1.15 30.1802 1.24 29.9002 1.32C29.9002 1.32 29.8902 1.32 29.8802 1.32C29.7802 1.36 29.7002 1.47 29.7002 1.59C29.7002 1.73 29.8002 1.84 29.9202 1.87C29.9402 1.87 29.9602 1.87 29.9902 1.87C31.0002 2 31.8702 2.16 32.0202 2.19C35.4202 2.92 38.7602 4.03 41.9602 5.54C45.4302 7.17 48.7302 9.26 51.7802 11.81C52.8302 12.69 53.8602 13.62 54.8502 14.61C57.6602 17.42 60.0302 20.51 61.9602 23.78C62.7202 25.07 63.4102 26.4 64.0402 27.74C64.0402 27.75 64.0402 27.76 64.0502 27.77C64.1002 27.86 64.2002 27.93 64.3102 27.93C64.4702 27.93 64.5902 27.81 64.6002 27.65C64.6002 27.65 64.6002 27.64 64.6002 27.63C64.6002 27.6 64.6002 27.57 64.5802 27.54L64.5902 27.57Z" fill="#214584"/>
<path d="M48.08 14.08C46.46 12.87 44.75 11.76 42.97 10.78C36.78 7.34999 29.69 5.35999 22.15 5.23999C21.95 5.23999 21.74 5.23999 21.54 5.23999C20.62 5.27999 19.71 5.51999 18.88 5.97999C18.7 6.08999 18.52 6.19999 18.34 6.30999C15.81 7.88999 13.41 9.77999 11.21 11.98C9.29 13.9 7.61 15.97 6.16 18.14C6.16 18.14 6.16 18.14 6.16 18.15C5.91 18.51 5.68 18.87 5.48 19.2V19.21C5.3 19.51 5.15 19.79 5.02 20.04C5.02 20.04 5.02 20.05 5.02 20.06C4.98 20.17 5 20.29 5.08 20.38C5.18 20.48 5.33 20.49 5.44 20.42C5.46 20.41 5.48 20.39 5.49 20.38C6.29 19.76 7.02 19.25 7.15 19.17C10.07 17.28 13.22 15.71 16.55 14.51C20.15 13.21 23.97 12.36 27.93 12C29.3 11.88 30.68 11.81 32.08 11.81C36.05 11.81 39.91 12.32 43.59 13.27C45.04 13.65 46.47 14.09 47.86 14.6C47.87 14.6 47.88 14.6 47.89 14.61C47.99 14.64 48.1 14.61 48.18 14.54C48.29 14.43 48.29 14.25 48.18 14.14C48.18 14.14 48.13 14.09 48.1 14.07L48.08 14.08Z" fill="#2C7DDE"/>
<path d="M27.57 15.5901C25.57 15.8801 23.58 16.3101 21.62 16.8701C14.82 18.8201 8.4 22.4201 2.98 27.6801C2.83 27.8201 2.69 27.9701 2.54 28.1101C1.92 28.7901 1.45 29.6101 1.18 30.5101C1.13 30.7101 1.08 30.9201 1.03 31.1301C0.36 34.0301 0 37.0701 0 40.1801C0 42.8901 0.27 45.5501 0.79 48.1101C0.79 48.1101 0.79 48.1101 0.79 48.1201C0.87 48.5601 0.96 48.9701 1.06 49.3401C1.06 49.3401 1.06 49.3401 1.06 49.3501C1.15 49.6901 1.24 49.9901 1.32 50.2701C1.32 50.2701 1.32 50.2801 1.32 50.2901C1.36 50.3901 1.47 50.4701 1.59 50.4701C1.73 50.4701 1.84 50.3701 1.87 50.2501C1.87 50.2301 1.87 50.2101 1.87 50.1801C2 49.1701 2.16 48.3001 2.19 48.1501C2.92 44.7501 4.03 41.4101 5.54 38.2101C7.17 34.7401 9.26 31.4401 11.81 28.3901C12.69 27.3401 13.62 26.3101 14.61 25.3201C17.42 22.5101 20.51 20.1401 23.78 18.2101C25.07 17.4501 26.4 16.7601 27.74 16.1301C27.75 16.1301 27.76 16.1301 27.77 16.1201C27.86 16.0701 27.93 15.9701 27.93 15.8601C27.93 15.7001 27.81 15.5801 27.65 15.5701H27.63C27.63 15.5701 27.57 15.5701 27.54 15.5901H27.57Z" fill="#214584"/>
<path d="M13.8102 31.81C12.6002 33.43 11.4902 35.14 10.5102 36.92C7.08022 43.11 5.09021 50.2 4.97021 57.74C4.97021 57.94 4.97021 58.15 4.97021 58.35C5.01021 59.27 5.25022 60.18 5.71022 61.01C5.82022 61.19 5.93022 61.37 6.04022 61.55C7.62021 64.08 9.51021 66.4799 11.7102 68.68C13.6302 70.5999 15.7002 72.28 17.8702 73.73H17.8802C18.2402 73.99 18.6002 74.2199 18.9302 74.4199H18.9402C19.2402 74.5999 19.5202 74.7499 19.7702 74.8799C19.7702 74.8799 19.7802 74.8799 19.7902 74.8799C19.9002 74.9199 20.0202 74.9 20.1102 74.82C20.2102 74.72 20.2202 74.57 20.1502 74.4599C20.1402 74.4399 20.1202 74.42 20.1102 74.41C19.4902 73.61 18.9802 72.88 18.9002 72.75C17.0102 69.8299 15.4402 66.68 14.2402 63.35C12.9402 59.75 12.0902 55.93 11.7302 51.97C11.6102 50.6 11.5402 49.22 11.5402 47.82C11.5402 43.85 12.0502 39.99 13.0002 36.31C13.3802 34.86 13.8202 33.43 14.3302 32.04C14.3302 32.03 14.3302 32.02 14.3402 32.01C14.3702 31.91 14.3402 31.8 14.2702 31.72C14.1602 31.61 13.9802 31.61 13.8702 31.72C13.8702 31.72 13.8702 31.72 13.8602 31.72C13.8402 31.74 13.8202 31.77 13.8102 31.8V31.81Z" fill="#2C7DDE"/>
<path d="M15.4101 52.4301C15.7001 54.4301 16.1301 56.4201 16.6901 58.3801C18.6401 65.1801 22.2401 71.6001 27.5001 77.0201C27.6401 77.1701 27.7901 77.3101 27.9301 77.4601C28.6101 78.0801 29.4301 78.5501 30.3301 78.8201C30.5301 78.8701 30.7401 78.9201 30.9501 78.9701C33.8601 79.6401 36.8901 80.0001 40.0101 80.0001C42.7201 80.0001 45.3801 79.7301 47.9401 79.2101C47.9401 79.2101 47.9401 79.2101 47.9501 79.2101C48.3901 79.1301 48.8001 79.0401 49.1701 78.9401C49.5101 78.8501 49.8101 78.7601 50.0901 78.6701C50.0901 78.6701 50.1001 78.6701 50.1101 78.6701C50.2101 78.6301 50.2901 78.5201 50.2901 78.4001C50.2901 78.2601 50.1901 78.1501 50.0701 78.1201C50.0501 78.1201 50.0301 78.1201 50.0001 78.1201C48.9901 77.9901 48.1201 77.8301 47.9701 77.8001C44.5701 77.0701 41.2301 75.9601 38.0301 74.4501C34.5601 72.8201 31.2601 70.7301 28.2101 68.1801C27.1601 67.3001 26.1301 66.3701 25.1401 65.3801C22.3301 62.5701 19.9601 59.4801 18.0301 56.2101C17.2701 54.9201 16.5801 53.5901 15.9501 52.2501C15.9501 52.2401 15.9501 52.2301 15.9401 52.2201C15.8901 52.1301 15.7901 52.0601 15.6801 52.0601C15.5201 52.0601 15.4001 52.1801 15.3901 52.3401C15.3901 52.3401 15.3901 52.3501 15.3901 52.3601C15.3901 52.3901 15.3901 52.4201 15.4101 52.4501V52.4301Z" fill="#214584"/>
<path d="M31.9198 65.92C33.5398 67.13 35.2498 68.24 37.0298 69.22C43.2198 72.65 50.3098 74.64 57.8498 74.76C58.0498 74.76 58.2598 74.76 58.4598 74.76C59.3798 74.72 60.2898 74.48 61.1198 74.02C61.2998 73.91 61.4798 73.8 61.6598 73.69C64.1898 72.11 66.5898 70.22 68.7898 68.02C70.7098 66.1 72.3898 64.03 73.8398 61.86C73.8398 61.86 73.8398 61.86 73.8398 61.85C74.0898 61.49 74.3198 61.13 74.5198 60.8C74.6998 60.5 74.8498 60.21 74.9798 59.96C74.9798 59.96 74.9798 59.95 74.9798 59.94C75.0198 59.83 74.9998 59.71 74.9198 59.62C74.8198 59.52 74.6698 59.51 74.5598 59.58C74.5398 59.59 74.5198 59.61 74.5098 59.62C73.7098 60.24 72.9798 60.75 72.8498 60.83C69.9298 62.72 66.7798 64.29 63.4498 65.49C59.8498 66.79 56.0298 67.64 52.0698 68C50.6998 68.12 49.3198 68.19 47.9198 68.19C43.9498 68.19 40.0898 67.68 36.4098 66.73C34.9598 66.35 33.5298 65.91 32.1398 65.4C32.1298 65.4 32.1198 65.4 32.1098 65.39C32.0098 65.36 31.8998 65.39 31.8198 65.46C31.7098 65.57 31.7098 65.75 31.8198 65.86C31.8498 65.89 31.8698 65.9 31.8998 65.92H31.9198Z" fill="#2C7DDE"/>
<path d="M52.4298 64.41C54.4298 64.12 56.4198 63.69 58.3798 63.13C65.1798 61.18 71.5998 57.58 77.0198 52.32C77.1698 52.18 77.3098 52.03 77.4598 51.89C78.0798 51.21 78.5498 50.39 78.8198 49.49C78.8698 49.29 78.9198 49.08 78.9698 48.87C79.6398 45.96 79.9998 42.93 79.9998 39.81C79.9998 37.1 79.7298 34.44 79.2098 31.88C79.2098 31.88 79.2098 31.88 79.2098 31.87C79.1298 31.43 79.0398 31.02 78.9398 30.65C78.9398 30.65 78.9398 30.65 78.9398 30.64C78.8498 30.3 78.7598 30 78.6798 29.72C78.6798 29.72 78.6798 29.71 78.6798 29.7C78.6398 29.6 78.5298 29.52 78.4098 29.52C78.2698 29.52 78.1598 29.62 78.1298 29.74C78.1298 29.76 78.1298 29.78 78.1298 29.81C77.9998 30.82 77.8398 31.69 77.8098 31.84C77.0798 35.24 75.9698 38.58 74.4598 41.78C72.8298 45.25 70.7398 48.55 68.1898 51.6C67.3098 52.65 66.3798 53.68 65.3898 54.67C62.5798 57.48 59.4898 59.85 56.2198 61.78C54.9298 62.54 53.5998 63.23 52.2598 63.86C52.2498 63.86 52.2398 63.86 52.2298 63.87C52.1398 63.92 52.0698 64.02 52.0698 64.13C52.0698 64.29 52.1898 64.41 52.3498 64.42H52.3698C52.3698 64.42 52.4298 64.42 52.4598 64.4L52.4298 64.41Z" fill="#214584"/>
<path d="M66.1898 48.1901C67.3998 46.5701 68.5098 44.8601 69.4898 43.0801C72.9198 36.8901 74.9098 29.8001 75.0298 22.2601C75.0298 22.0601 75.0298 21.8501 75.0298 21.6501C74.9898 20.7301 74.7498 19.8201 74.2898 18.9901C74.1798 18.8101 74.0698 18.6301 73.9598 18.4501C72.3798 15.9201 70.4898 13.5201 68.2898 11.3201C66.3698 9.4001 64.2998 7.7201 62.1298 6.2701H62.1198C61.7598 6.0101 61.3998 5.7801 61.0698 5.5801H61.0598C60.7598 5.4001 60.4798 5.2501 60.2298 5.1201C60.2298 5.1201 60.2198 5.1201 60.2098 5.1201C60.0998 5.0801 59.9798 5.1001 59.8898 5.1801C59.7898 5.2801 59.7798 5.4301 59.8498 5.5401C59.8598 5.5601 59.8798 5.5801 59.8898 5.5901C60.5098 6.3901 61.0198 7.1201 61.0998 7.2501C62.9898 10.1701 64.5598 13.3201 65.7598 16.6501C67.0598 20.2501 67.9098 24.0701 68.2698 28.0301C68.3898 29.4001 68.4598 30.7801 68.4598 32.1801C68.4598 36.1501 67.9498 40.0101 66.9998 43.6901C66.6198 45.1401 66.1798 46.5701 65.6698 47.9601C65.6698 47.9701 65.6698 47.9801 65.6598 47.9901C65.6298 48.0901 65.6598 48.2001 65.7298 48.2801C65.8398 48.3901 66.0198 48.3901 66.1298 48.2801H66.1398C66.1398 48.2801 66.1798 48.2201 66.1898 48.1901Z" fill="#2C7DDE"/>
<path d="M153.567 113.98V105.253H156.515C157.2 105.253 157.76 105.376 158.194 105.623C158.632 105.868 158.956 106.199 159.166 106.616C159.376 107.034 159.481 107.5 159.481 108.014C159.481 108.528 159.376 108.996 159.166 109.416C158.959 109.837 158.638 110.172 158.203 110.422C157.768 110.669 157.211 110.792 156.532 110.792H154.419V109.855H156.498C156.967 109.855 157.344 109.774 157.628 109.612C157.912 109.45 158.118 109.231 158.246 108.956C158.376 108.677 158.442 108.364 158.442 108.014C158.442 107.665 158.376 107.352 158.246 107.077C158.118 106.801 157.91 106.585 157.623 106.429C157.336 106.27 156.956 106.19 156.481 106.19H154.623V113.98H153.567ZM163.721 114.116C163.091 114.116 162.547 113.977 162.089 113.699C161.635 113.417 161.284 113.025 161.037 112.523C160.792 112.017 160.67 111.429 160.67 110.758C160.67 110.088 160.792 109.497 161.037 108.986C161.284 108.471 161.628 108.071 162.068 107.784C162.511 107.494 163.028 107.349 163.619 107.349C163.96 107.349 164.297 107.406 164.629 107.52C164.961 107.633 165.264 107.818 165.537 108.074C165.809 108.327 166.027 108.662 166.189 109.079C166.351 109.497 166.432 110.011 166.432 110.622V111.048H161.386V110.179H165.409C165.409 109.81 165.335 109.48 165.187 109.19C165.042 108.9 164.835 108.672 164.565 108.504C164.298 108.337 163.983 108.253 163.619 108.253C163.219 108.253 162.872 108.352 162.579 108.551C162.29 108.747 162.067 109.003 161.91 109.318C161.754 109.633 161.676 109.971 161.676 110.332V110.912C161.676 111.406 161.761 111.825 161.932 112.169C162.105 112.51 162.345 112.77 162.652 112.949C162.959 113.125 163.315 113.213 163.721 113.213C163.986 113.213 164.224 113.176 164.437 113.102C164.653 113.025 164.839 112.912 164.996 112.761C165.152 112.608 165.273 112.417 165.358 112.19L166.329 112.463C166.227 112.792 166.055 113.082 165.814 113.332C165.572 113.579 165.274 113.773 164.919 113.912C164.564 114.048 164.165 114.116 163.721 114.116ZM168.967 110.042V113.98H167.961V107.435H168.933V108.457H169.018C169.172 108.125 169.405 107.858 169.717 107.656C170.03 107.452 170.433 107.349 170.927 107.349C171.371 107.349 171.758 107.44 172.091 107.622C172.423 107.801 172.682 108.074 172.866 108.44C173.051 108.804 173.143 109.264 173.143 109.821V113.98H172.138V109.889C172.138 109.375 172.004 108.974 171.737 108.687C171.47 108.398 171.104 108.253 170.638 108.253C170.317 108.253 170.03 108.322 169.777 108.462C169.527 108.601 169.329 108.804 169.184 109.071C169.04 109.338 168.967 109.662 168.967 110.042ZM179.617 108.9L178.714 109.156C178.657 109.006 178.573 108.859 178.463 108.717C178.355 108.572 178.207 108.453 178.019 108.359C177.832 108.265 177.592 108.219 177.299 108.219C176.899 108.219 176.565 108.311 176.298 108.496C176.034 108.677 175.901 108.909 175.901 109.19C175.901 109.44 175.992 109.638 176.174 109.783C176.356 109.927 176.64 110.048 177.026 110.145L177.998 110.383C178.583 110.525 179.019 110.743 179.306 111.035C179.593 111.325 179.737 111.699 179.737 112.156C179.737 112.531 179.629 112.866 179.413 113.162C179.2 113.457 178.901 113.69 178.518 113.861C178.134 114.031 177.688 114.116 177.18 114.116C176.512 114.116 175.96 113.971 175.522 113.682C175.085 113.392 174.808 112.969 174.691 112.412L175.646 112.173C175.737 112.525 175.909 112.79 176.161 112.966C176.417 113.142 176.751 113.23 177.163 113.23C177.632 113.23 178.004 113.131 178.279 112.932C178.558 112.73 178.697 112.489 178.697 112.207C178.697 111.98 178.617 111.79 178.458 111.636C178.299 111.48 178.055 111.364 177.725 111.287L176.634 111.031C176.035 110.889 175.595 110.669 175.313 110.371C175.035 110.069 174.896 109.693 174.896 109.241C174.896 108.872 174.999 108.545 175.207 108.261C175.417 107.977 175.703 107.754 176.063 107.592C176.427 107.43 176.839 107.349 177.299 107.349C177.947 107.349 178.455 107.491 178.825 107.775C179.197 108.06 179.461 108.435 179.617 108.9ZM181.251 113.98V107.435H182.256V113.98H181.251ZM181.762 106.344C181.566 106.344 181.397 106.277 181.255 106.143C181.116 106.01 181.046 105.849 181.046 105.662C181.046 105.474 181.116 105.314 181.255 105.18C181.397 105.047 181.566 104.98 181.762 104.98C181.958 104.98 182.126 105.047 182.265 105.18C182.407 105.314 182.478 105.474 182.478 105.662C182.478 105.849 182.407 106.01 182.265 106.143C182.126 106.277 181.958 106.344 181.762 106.344ZM186.757 114.116C186.166 114.116 185.648 113.976 185.202 113.694C184.759 113.413 184.412 113.02 184.162 112.514C183.915 112.008 183.791 111.417 183.791 110.741C183.791 110.06 183.915 109.464 184.162 108.956C184.412 108.447 184.759 108.052 185.202 107.771C185.648 107.49 186.166 107.349 186.757 107.349C187.348 107.349 187.865 107.49 188.308 107.771C188.754 108.052 189.101 108.447 189.348 108.956C189.598 109.464 189.723 110.06 189.723 110.741C189.723 111.417 189.598 112.008 189.348 112.514C189.101 113.02 188.754 113.413 188.308 113.694C187.865 113.976 187.348 114.116 186.757 114.116ZM186.757 113.213C187.206 113.213 187.575 113.098 187.865 112.868C188.155 112.638 188.369 112.335 188.509 111.96C188.648 111.585 188.718 111.179 188.718 110.741C188.718 110.304 188.648 109.896 188.509 109.518C188.369 109.14 188.155 108.835 187.865 108.602C187.575 108.369 187.206 108.253 186.757 108.253C186.308 108.253 185.939 108.369 185.649 108.602C185.36 108.835 185.145 109.14 185.006 109.518C184.867 109.896 184.797 110.304 184.797 110.741C184.797 111.179 184.867 111.585 185.006 111.96C185.145 112.335 185.36 112.638 185.649 112.868C185.939 113.098 186.308 113.213 186.757 113.213ZM192.264 110.042V113.98H191.258V107.435H192.23V108.457H192.315C192.469 108.125 192.702 107.858 193.014 107.656C193.327 107.452 193.73 107.349 194.224 107.349C194.667 107.349 195.055 107.44 195.388 107.622C195.72 107.801 195.979 108.074 196.163 108.44C196.348 108.804 196.44 109.264 196.44 109.821V113.98H195.434V109.889C195.434 109.375 195.301 108.974 195.034 108.687C194.767 108.398 194.4 108.253 193.934 108.253C193.613 108.253 193.327 108.322 193.074 108.462C192.824 108.601 192.626 108.804 192.481 109.071C192.336 109.338 192.264 109.662 192.264 110.042ZM204.124 114.099C203.551 114.099 203.056 113.994 202.642 113.784C202.227 113.574 201.907 113.285 201.683 112.919C201.458 112.552 201.346 112.133 201.346 111.662C201.346 111.298 201.423 110.976 201.576 110.694C201.732 110.41 201.947 110.148 202.22 109.906C202.495 109.662 202.812 109.417 203.17 109.173L204.431 108.236C204.678 108.074 204.876 107.9 205.024 107.716C205.174 107.531 205.249 107.29 205.249 106.991C205.249 106.77 205.151 106.555 204.955 106.348C204.762 106.14 204.508 106.037 204.193 106.037C203.971 106.037 203.775 106.094 203.605 106.207C203.437 106.318 203.305 106.46 203.208 106.633C203.115 106.804 203.068 106.98 203.068 107.162C203.068 107.366 203.123 107.574 203.234 107.784C203.347 107.991 203.491 108.204 203.664 108.423C203.84 108.639 204.022 108.861 204.21 109.088L208.215 113.98H207.005L203.698 109.991C203.392 109.622 203.113 109.287 202.863 108.986C202.613 108.685 202.414 108.388 202.267 108.095C202.119 107.802 202.045 107.486 202.045 107.145C202.045 106.753 202.132 106.409 202.305 106.114C202.481 105.815 202.727 105.584 203.042 105.419C203.36 105.251 203.732 105.167 204.159 105.167C204.596 105.167 204.972 105.253 205.288 105.423C205.603 105.591 205.846 105.814 206.017 106.092C206.187 106.368 206.272 106.667 206.272 106.991C206.272 107.409 206.169 107.771 205.961 108.078C205.754 108.385 205.471 108.67 205.113 108.935L203.374 110.23C202.982 110.52 202.717 110.801 202.578 111.074C202.438 111.346 202.369 111.542 202.369 111.662C202.369 111.935 202.44 112.189 202.582 112.425C202.724 112.66 202.924 112.851 203.183 112.996C203.441 113.14 203.744 113.213 204.09 113.213C204.42 113.213 204.741 113.143 205.053 113.004C205.366 112.862 205.649 112.658 205.901 112.39C206.157 112.123 206.359 111.802 206.507 111.427C206.657 111.052 206.732 110.631 206.732 110.162H207.704C207.704 110.741 207.637 111.214 207.504 111.581C207.37 111.947 207.22 112.234 207.052 112.442C206.884 112.649 206.749 112.804 206.647 112.906C206.613 112.949 206.582 112.991 206.553 113.034C206.525 113.077 206.494 113.119 206.46 113.162C206.178 113.477 205.823 113.713 205.394 113.869C204.965 114.023 204.542 114.099 204.124 114.099ZM212.84 113.98V105.253H215.891C216.499 105.253 217.001 105.358 217.395 105.568C217.79 105.775 218.084 106.055 218.278 106.408C218.471 106.757 218.567 107.145 218.567 107.571C218.567 107.946 218.501 108.256 218.367 108.5C218.236 108.744 218.063 108.937 217.847 109.079C217.634 109.221 217.403 109.327 217.153 109.395V109.48C217.42 109.497 217.688 109.591 217.958 109.761C218.228 109.932 218.454 110.176 218.635 110.494C218.817 110.812 218.908 111.202 218.908 111.662C218.908 112.099 218.809 112.493 218.61 112.842C218.411 113.192 218.097 113.469 217.668 113.673C217.239 113.878 216.681 113.98 215.993 113.98H212.84ZM213.897 113.042H215.993C216.684 113.042 217.174 112.909 217.464 112.642C217.756 112.372 217.903 112.045 217.903 111.662C217.903 111.366 217.827 111.094 217.677 110.844C217.526 110.591 217.312 110.389 217.033 110.239C216.755 110.085 216.425 110.008 216.045 110.008H213.897V113.042ZM213.897 109.088H215.857C216.175 109.088 216.462 109.025 216.718 108.9C216.976 108.775 217.181 108.599 217.331 108.372C217.485 108.145 217.562 107.878 217.562 107.571C217.562 107.187 217.428 106.862 217.161 106.595C216.894 106.325 216.471 106.19 215.891 106.19H213.897V109.088ZM223.253 114.116C222.622 114.116 222.078 113.977 221.621 113.699C221.166 113.417 220.815 113.025 220.568 112.523C220.324 112.017 220.202 111.429 220.202 110.758C220.202 110.088 220.324 109.497 220.568 108.986C220.815 108.471 221.159 108.071 221.599 107.784C222.042 107.494 222.559 107.349 223.15 107.349C223.491 107.349 223.828 107.406 224.16 107.52C224.493 107.633 224.795 107.818 225.068 108.074C225.341 108.327 225.558 108.662 225.72 109.079C225.882 109.497 225.963 110.011 225.963 110.622V111.048H220.917V110.179H224.94C224.94 109.81 224.866 109.48 224.719 109.19C224.574 108.9 224.366 108.672 224.096 108.504C223.829 108.337 223.514 108.253 223.15 108.253C222.75 108.253 222.403 108.352 222.111 108.551C221.821 108.747 221.598 109.003 221.442 109.318C221.285 109.633 221.207 109.971 221.207 110.332V110.912C221.207 111.406 221.292 111.825 221.463 112.169C221.636 112.51 221.876 112.77 222.183 112.949C222.49 113.125 222.846 113.213 223.253 113.213C223.517 113.213 223.756 113.176 223.969 113.102C224.184 113.025 224.371 112.912 224.527 112.761C224.683 112.608 224.804 112.417 224.889 112.19L225.861 112.463C225.758 112.792 225.586 113.082 225.345 113.332C225.104 113.579 224.805 113.773 224.45 113.912C224.095 114.048 223.696 114.116 223.253 114.116ZM228.498 110.042V113.98H227.493V107.435H228.464V108.457H228.55C228.703 108.125 228.936 107.858 229.248 107.656C229.561 107.452 229.964 107.349 230.459 107.349C230.902 107.349 231.29 107.44 231.622 107.622C231.954 107.801 232.213 108.074 232.398 108.44C232.582 108.804 232.675 109.264 232.675 109.821V113.98H231.669V109.889C231.669 109.375 231.535 108.974 231.268 108.687C231.001 108.398 230.635 108.253 230.169 108.253C229.848 108.253 229.561 108.322 229.308 108.462C229.058 108.601 228.861 108.804 228.716 109.071C228.571 109.338 228.498 109.662 228.498 110.042ZM237.257 114.116C236.626 114.116 236.082 113.977 235.624 113.699C235.17 113.417 234.819 113.025 234.572 112.523C234.328 112.017 234.205 111.429 234.205 110.758C234.205 110.088 234.328 109.497 234.572 108.986C234.819 108.471 235.163 108.071 235.603 107.784C236.046 107.494 236.563 107.349 237.154 107.349C237.495 107.349 237.832 107.406 238.164 107.52C238.497 107.633 238.799 107.818 239.072 108.074C239.345 108.327 239.562 108.662 239.724 109.079C239.886 109.497 239.967 110.011 239.967 110.622V111.048H234.921V110.179H238.944C238.944 109.81 238.87 109.48 238.722 109.19C238.578 108.9 238.37 108.672 238.1 108.504C237.833 108.337 237.518 108.253 237.154 108.253C236.754 108.253 236.407 108.352 236.115 108.551C235.825 108.747 235.602 109.003 235.445 109.318C235.289 109.633 235.211 109.971 235.211 110.332V110.912C235.211 111.406 235.296 111.825 235.467 112.169C235.64 112.51 235.88 112.77 236.187 112.949C236.494 113.125 236.85 113.213 237.257 113.213C237.521 113.213 237.759 113.176 237.972 113.102C238.188 113.025 238.374 112.912 238.531 112.761C238.687 112.608 238.808 112.417 238.893 112.19L239.865 112.463C239.762 112.792 239.59 113.082 239.349 113.332C239.107 113.579 238.809 113.773 238.454 113.912C238.099 114.048 237.7 114.116 237.257 114.116ZM244.411 107.435V108.287H240.883V107.435H244.411ZM241.94 113.98V106.531C241.94 106.156 242.028 105.844 242.204 105.594C242.38 105.344 242.609 105.156 242.89 105.031C243.171 104.906 243.468 104.844 243.781 104.844C244.028 104.844 244.23 104.864 244.386 104.903C244.542 104.943 244.659 104.98 244.735 105.014L244.445 105.883C244.394 105.866 244.323 105.845 244.232 105.819C244.144 105.794 244.028 105.781 243.883 105.781C243.551 105.781 243.311 105.865 243.163 106.033C243.018 106.2 242.945 106.446 242.945 106.77V113.98H241.94ZM245.821 113.98V107.435H246.827V113.98H245.821ZM246.332 106.344C246.136 106.344 245.967 106.277 245.825 106.143C245.686 106.01 245.616 105.849 245.616 105.662C245.616 105.474 245.686 105.314 245.825 105.18C245.967 105.047 246.136 104.98 246.332 104.98C246.528 104.98 246.696 105.047 246.835 105.18C246.977 105.314 247.048 105.474 247.048 105.662C247.048 105.849 246.977 106.01 246.835 106.143C246.696 106.277 246.528 106.344 246.332 106.344ZM251.515 107.435V108.287H248.123V107.435H251.515ZM249.112 105.866H250.117V112.105C250.117 112.389 250.159 112.602 250.241 112.744C250.326 112.883 250.434 112.977 250.565 113.025C250.698 113.071 250.839 113.094 250.987 113.094C251.097 113.094 251.188 113.088 251.259 113.077C251.33 113.062 251.387 113.051 251.43 113.042L251.634 113.946C251.566 113.971 251.471 113.997 251.349 114.023C251.227 114.051 251.072 114.065 250.884 114.065C250.6 114.065 250.322 114.004 250.049 113.882C249.779 113.76 249.555 113.574 249.376 113.324C249.2 113.074 249.112 112.758 249.112 112.378V105.866ZM257.547 108.9L256.644 109.156C256.587 109.006 256.503 108.859 256.392 108.717C256.284 108.572 256.137 108.453 255.949 108.359C255.762 108.265 255.521 108.219 255.229 108.219C254.828 108.219 254.494 108.311 254.227 108.496C253.963 108.677 253.831 108.909 253.831 109.19C253.831 109.44 253.922 109.638 254.104 109.783C254.286 109.927 254.57 110.048 254.956 110.145L255.928 110.383C256.513 110.525 256.949 110.743 257.236 111.035C257.523 111.325 257.666 111.699 257.666 112.156C257.666 112.531 257.558 112.866 257.343 113.162C257.129 113.457 256.831 113.69 256.448 113.861C256.064 114.031 255.618 114.116 255.11 114.116C254.442 114.116 253.889 113.971 253.452 113.682C253.014 113.392 252.737 112.969 252.621 112.412L253.575 112.173C253.666 112.525 253.838 112.79 254.091 112.966C254.347 113.142 254.681 113.23 255.093 113.23C255.561 113.23 255.933 113.131 256.209 112.932C256.487 112.73 256.627 112.489 256.627 112.207C256.627 111.98 256.547 111.79 256.388 111.636C256.229 111.48 255.985 111.364 255.655 111.287L254.564 111.031C253.965 110.889 253.524 110.669 253.243 110.371C252.965 110.069 252.825 109.693 252.825 109.241C252.825 108.872 252.929 108.545 253.137 108.261C253.347 107.977 253.632 107.754 253.993 107.592C254.357 107.43 254.769 107.349 255.229 107.349C255.877 107.349 256.385 107.491 256.754 107.775C257.127 108.06 257.391 108.435 257.547 108.9Z" fill="#666666"/>
<path d="M403.02 23.55C403.48 23.35 403.78 22.88 403.78 22.33C403.78 21.6 403.19 21.01 402.46 21.01H400.98C400.98 21.01 400.91 21.04 400.91 21.08V25C400.91 25 400.94 25.07 400.98 25.07H401.34C401.34 25.07 401.41 25.04 401.41 25V23.65H402.52L403.49 25.04C403.49 25.04 403.52 25.07 403.55 25.07H403.95C403.95 25.07 404 25.06 404.01 25.03C404.02 25.01 404.02 24.98 404.01 24.96L403.03 23.55H403.02ZM402.46 23.15H401.4V21.51H402.46C402.91 21.51 403.28 21.88 403.28 22.33C403.28 22.78 402.91 23.15 402.46 23.15Z" fill="#393D3E"/>
<path d="M404.99 20.37C404.28 19.66 403.33 19.26 402.32 19.26C401.31 19.26 400.36 19.65 399.65 20.37C398.94 21.08 398.54 22.03 398.54 23.04C398.54 24.05 398.93 25 399.65 25.71C400.36 26.42 401.31 26.82 402.32 26.82C403.33 26.82 404.28 26.43 404.99 25.71C405.7 25 406.1 24.05 406.1 23.04C406.1 22.03 405.71 21.08 404.99 20.37ZM404.74 25.46C404.09 26.11 403.24 26.46 402.32 26.46C401.4 26.46 400.55 26.1 399.9 25.46C399.25 24.81 398.9 23.96 398.9 23.04C398.9 22.12 399.26 21.27 399.9 20.62C400.55 19.97 401.4 19.62 402.32 19.62C403.24 19.62 404.09 19.98 404.74 20.62C405.39 21.27 405.74 22.12 405.74 23.04C405.74 23.96 405.38 24.81 404.74 25.46Z" fill="#393D3E"/>
<path d="M251.15 20.02H218.19C217.75 20.02 217.33 20.22 217.05 20.57C217.05 20.57 217.05 20.58 217.04 20.59L216.95 20.71C216.95 20.71 216.95 20.71 216.95 20.72C216.81 20.95 216.74 21.21 216.74 21.48V26.58C216.74 26.74 216.87 26.86 217.02 26.86H230.67V61.21C230.67 61.37 230.8 61.49 230.95 61.49H236.64C237.12 61.49 237.51 61.1 237.51 60.62V26.86H249.98C250.78 26.86 251.44 26.21 251.44 25.4V20.3C251.44 20.14 251.31 20.02 251.16 20.02H251.15Z" fill="#393D3E"/>
<path d="M289.7 54.65H267.31V44.05H282.61C283.41 44.05 284.07 43.4 284.07 42.59V37.49C284.07 37.33 283.94 37.21 283.79 37.21H267.31V26.85H288.46C289.26 26.85 289.92 26.2 289.92 25.39V20.29C289.92 20.13 289.79 20.01 289.64 20.01H261.93C261.49 20.01 261.08 20.21 260.8 20.56C260.8 20.56 260.8 20.57 260.79 20.58L260.7 20.7C260.7 20.7 260.7 20.7 260.7 20.71C260.56 20.94 260.49 21.2 260.49 21.47V61.2C260.49 61.36 260.62 61.48 260.77 61.48H289.13C289.61 61.48 290 61.09 290 60.61V54.92C290 54.76 289.87 54.64 289.72 54.64L289.7 54.65Z" fill="#393D3E"/>
<path d="M381.61 20.58V20.56C381.61 20.56 381.58 20.5 381.56 20.48C381.56 20.48 381.56 20.46 381.55 20.46L381.47 20.35C381.47 20.35 381.45 20.32 381.44 20.31L381.39 20.26C381.39 20.26 381.39 20.26 381.38 20.25C381.22 20.11 381.02 20.03 380.8 20.03H376.23C375.97 20.03 375.72 20.15 375.55 20.36C375.55 20.36 375.55 20.37 375.54 20.38L375.5 20.44C375.5 20.44 375.5 20.44 375.5 20.45C375.49 20.47 375.48 20.49 375.46 20.52C375.46 20.52 375.46 20.53 375.46 20.54L359.01 61.12C358.97 61.21 358.99 61.31 359.04 61.38C359.09 61.46 359.18 61.5 359.27 61.5H364.98C365.53 61.5 366.03 61.19 366.28 60.7C366.32 60.63 366.35 60.55 366.37 60.48L370.39 50.57H386.68L390.7 60.48C390.72 60.55 390.75 60.62 390.79 60.69C391.04 61.19 391.54 61.5 392.09 61.5H397.8C397.89 61.5 397.98 61.45 398.03 61.38C398.08 61.3 398.09 61.2 398.06 61.12L381.63 20.59L381.61 20.58ZM373.14 43.72L378.51 30.47L383.88 43.72H373.14Z" fill="#393D3E"/>
<path d="M129.55 25.92C134.41 25.92 138.96 28.31 141.74 32.3L141.93 32.57C141.93 32.57 141.93 32.57 141.93 32.58C142.21 32.94 142.63 33.15 143.09 33.15C143.46 33.15 143.81 33.01 144.09 32.75L147.36 29.48C147.36 29.48 147.36 29.48 147.36 29.47C147.51 29.31 147.59 29.1 147.59 28.89C147.59 28.73 147.55 28.58 147.46 28.44C147.43 28.4 147.4 28.36 147.37 28.32L146.99 27.81C145.01 25.14 142.41 22.94 139.46 21.42C136.41 19.85 132.98 19.03 129.54 19.03C117.56 19.03 107.81 28.78 107.81 40.76C107.81 52.74 117.56 62.49 129.54 62.49C132.99 62.49 136.42 61.66 139.46 60.1C142.41 58.59 145.01 56.38 146.99 53.71L147.42 53.13C147.42 53.13 147.44 53.11 147.45 53.09C147.54 52.95 147.59 52.78 147.59 52.62C147.59 52.42 147.52 52.23 147.39 52.07C147.39 52.07 147.37 52.05 147.37 52.04C147.37 52.04 147.37 52.04 147.36 52.03L147.31 51.98C147.31 51.98 147.31 51.98 147.3 51.97C147.3 51.97 147.29 51.96 147.28 51.95L144.06 48.73H144.05C143.78 48.48 143.44 48.35 143.08 48.35C142.64 48.35 142.22 48.55 141.94 48.9C141.94 48.9 141.94 48.91 141.93 48.92L141.73 49.21C138.95 53.21 134.4 55.59 129.54 55.59C121.36 55.59 114.71 48.94 114.71 40.76C114.71 32.58 121.36 25.93 129.54 25.93L129.55 25.92Z" fill="#393D3E"/>
<path d="M189.91 58.52L181.5 46.07C183.55 44.95 185.27 43.28 186.47 41.22C187.73 39.05 188.4 36.51 188.4 33.86C188.4 26.23 182.19 20.02 174.56 20.02H159.9C159.46 20.02 159.04 20.22 158.76 20.57C158.76 20.57 158.76 20.58 158.75 20.59L158.66 20.71C158.66 20.71 158.66 20.71 158.66 20.72C158.52 20.95 158.45 21.21 158.45 21.48V61.21C158.45 61.37 158.58 61.49 158.73 61.49H163.83C164.63 61.49 165.29 60.84 165.29 60.03V47.7H174.58L182.76 59.4C183.61 60.66 185.05 61.48 186.68 61.48H190.59C190.59 61.48 190.62 61.48 190.64 61.48C190.66 61.48 190.67 61.48 190.69 61.48C191.09 61.45 191.4 61.12 191.4 60.72C191.4 60.52 191.32 60.34 191.19 60.2C190.71 59.61 189.91 58.52 189.91 58.52ZM174.56 40.82H165.39V26.9H174.56C176.41 26.9 178.15 27.63 179.47 28.95C180.79 30.27 181.52 32.02 181.52 33.86C181.52 35.7 180.79 37.45 179.47 38.77C178.15 40.09 176.4 40.82 174.56 40.82Z" fill="#393D3E"/>
<path d="M332.8 58.52L324.39 46.07C326.44 44.95 328.16 43.28 329.36 41.22C330.62 39.05 331.29 36.51 331.29 33.86C331.29 26.23 325.08 20.02 317.45 20.02H302.79C302.35 20.02 301.93 20.22 301.65 20.57C301.65 20.57 301.65 20.58 301.64 20.59L301.55 20.71C301.55 20.71 301.55 20.71 301.55 20.72C301.41 20.95 301.34 21.21 301.34 21.48V61.21C301.34 61.37 301.47 61.49 301.62 61.49H306.72C307.52 61.49 308.18 60.84 308.18 60.03V47.7H317.47L325.65 59.4C326.5 60.66 327.94 61.48 329.57 61.48H333.48C333.48 61.48 333.51 61.48 333.53 61.48C333.55 61.48 333.56 61.48 333.58 61.48C333.98 61.45 334.29 61.12 334.29 60.72C334.29 60.52 334.21 60.34 334.08 60.2C333.6 59.61 332.8 58.52 332.8 58.52ZM317.44 40.82H308.27V26.9H317.44C319.29 26.9 321.03 27.63 322.35 28.95C323.67 30.27 324.4 32.02 324.4 33.86C324.4 35.7 323.67 37.45 322.35 38.77C321.03 40.09 319.28 40.82 317.44 40.82Z" fill="#393D3E"/>
<path d="M200.87 33.86C200.87 33.86 200.87 33.93 200.88 33.96V33.75C200.88 33.75 200.87 33.82 200.87 33.85V33.86Z" fill="#393D3E"/>
<path d="M207.51 20.72C207.51 20.72 207.51 20.72 207.51 20.71L207.42 20.59V20.58C207.14 20.23 206.72 20.03 206.28 20.03H201.18C201.02 20.03 200.9 20.16 200.9 20.31V60.63C200.9 61.11 201.29 61.49 201.76 61.5H207.44C207.6 61.5 207.72 61.37 207.72 61.22V21.48C207.72 21.21 207.65 20.95 207.51 20.72Z" fill="#393D3E"/>
<path d="M350.4 20.72C350.4 20.72 350.4 20.72 350.4 20.71L350.31 20.59C350.31 20.59 350.31 20.58 350.3 20.57C350.02 20.22 349.61 20.02 349.16 20.02H344.06C343.9 20.02 343.78 20.15 343.78 20.3V38.61C343.78 38.61 343.77 38.68 343.77 38.71C343.77 38.74 343.77 38.78 343.78 38.81V60.62C343.78 61.1 344.17 61.48 344.64 61.49H350.32C350.48 61.49 350.6 61.36 350.6 61.21V21.48C350.6 21.21 350.53 20.95 350.39 20.72H350.4Z" fill="#393D3E"/>
<path d="M350.33 38.51C350.18 38.51 350.05 38.63 350.05 38.79C350.05 38.95 350.17 39.06 350.31 39.07C350.32 39.07 350.33 39.07 350.35 39.07C350.49 39.06 350.61 38.94 350.61 38.8C350.61 38.65 350.49 38.52 350.33 38.52V38.51Z" fill="#393D3E"/>
<path d="M64.5902 27.57C64.3002 25.57 63.8702 23.58 63.3102 21.62C61.3602 14.82 57.7602 8.4 52.5002 2.98C52.3602 2.83 52.2102 2.69 52.0702 2.54C51.3902 1.92 50.5702 1.45 49.6702 1.18C49.4702 1.13 49.2602 1.08 49.0502 1.03C46.1402 0.36 43.1102 0 39.9902 0C37.2802 0 34.6202 0.27 32.0602 0.79C32.0602 0.79 32.0602 0.79 32.0502 0.79C31.6102 0.87 31.2002 0.96 30.8302 1.06C30.8302 1.06 30.8302 1.06 30.8202 1.06C30.4802 1.15 30.1802 1.24 29.9002 1.32C29.9002 1.32 29.8902 1.32 29.8802 1.32C29.7802 1.36 29.7002 1.47 29.7002 1.59C29.7002 1.73 29.8002 1.84 29.9202 1.87C29.9402 1.87 29.9602 1.87 29.9902 1.87C31.0002 2 31.8702 2.16 32.0202 2.19C35.4202 2.92 38.7602 4.03 41.9602 5.54C45.4302 7.17 48.7302 9.26 51.7802 11.81C52.8302 12.69 53.8602 13.62 54.8502 14.61C57.6602 17.42 60.0302 20.51 61.9602 23.78C62.7202 25.07 63.4102 26.4 64.0402 27.74C64.0402 27.75 64.0402 27.76 64.0502 27.77C64.1002 27.86 64.2002 27.93 64.3102 27.93C64.4702 27.93 64.5902 27.81 64.6002 27.65C64.6002 27.65 64.6002 27.64 64.6002 27.63C64.6002 27.6 64.6002 27.57 64.5802 27.54L64.5902 27.57Z" fill="#214584"/>
<path d="M48.08 14.08C46.46 12.87 44.75 11.76 42.97 10.78C36.78 7.34999 29.69 5.35999 22.15 5.23999C21.95 5.23999 21.74 5.23999 21.54 5.23999C20.62 5.27999 19.71 5.51999 18.88 5.97999C18.7 6.08999 18.52 6.19999 18.34 6.30999C15.81 7.88999 13.41 9.77999 11.21 11.98C9.29 13.9 7.61 15.97 6.16 18.14C6.16 18.14 6.16 18.14 6.16 18.15C5.91 18.51 5.68 18.87 5.48 19.2V19.21C5.3 19.51 5.15 19.79 5.02 20.04C5.02 20.04 5.02 20.05 5.02 20.06C4.98 20.17 5 20.29 5.08 20.38C5.18 20.48 5.33 20.49 5.44 20.42C5.46 20.41 5.48 20.39 5.49 20.38C6.29 19.76 7.02 19.25 7.15 19.17C10.07 17.28 13.22 15.71 16.55 14.51C20.15 13.21 23.97 12.36 27.93 12C29.3 11.88 30.68 11.81 32.08 11.81C36.05 11.81 39.91 12.32 43.59 13.27C45.04 13.65 46.47 14.09 47.86 14.6C47.87 14.6 47.88 14.6 47.89 14.61C47.99 14.64 48.1 14.61 48.18 14.54C48.29 14.43 48.29 14.25 48.18 14.14C48.18 14.14 48.13 14.09 48.1 14.07L48.08 14.08Z" fill="#2C7DDE"/>
<path d="M27.57 15.5901C25.57 15.8801 23.58 16.3101 21.62 16.8701C14.82 18.8201 8.4 22.4201 2.98 27.6801C2.83 27.8201 2.69 27.9701 2.54 28.1101C1.92 28.7901 1.45 29.6101 1.18 30.5101C1.13 30.7101 1.08 30.9201 1.03 31.1301C0.36 34.0301 0 37.0701 0 40.1801C0 42.8901 0.27 45.5501 0.79 48.1101C0.79 48.1101 0.79 48.1101 0.79 48.1201C0.87 48.5601 0.96 48.9701 1.06 49.3401C1.06 49.3401 1.06 49.3401 1.06 49.3501C1.15 49.6901 1.24 49.9901 1.32 50.2701C1.32 50.2701 1.32 50.2801 1.32 50.2901C1.36 50.3901 1.47 50.4701 1.59 50.4701C1.73 50.4701 1.84 50.3701 1.87 50.2501C1.87 50.2301 1.87 50.2101 1.87 50.1801C2 49.1701 2.16 48.3001 2.19 48.1501C2.92 44.7501 4.03 41.4101 5.54 38.2101C7.17 34.7401 9.26 31.4401 11.81 28.3901C12.69 27.3401 13.62 26.3101 14.61 25.3201C17.42 22.5101 20.51 20.1401 23.78 18.2101C25.07 17.4501 26.4 16.7601 27.74 16.1301C27.75 16.1301 27.76 16.1301 27.77 16.1201C27.86 16.0701 27.93 15.9701 27.93 15.8601C27.93 15.7001 27.81 15.5801 27.65 15.5701H27.63C27.63 15.5701 27.57 15.5701 27.54 15.5901H27.57Z" fill="#214584"/>
<path d="M13.8102 31.81C12.6002 33.43 11.4902 35.14 10.5102 36.92C7.08022 43.11 5.09021 50.2 4.97021 57.74C4.97021 57.94 4.97021 58.15 4.97021 58.35C5.01021 59.27 5.25022 60.18 5.71022 61.01C5.82022 61.19 5.93022 61.37 6.04022 61.55C7.62021 64.08 9.51021 66.4799 11.7102 68.68C13.6302 70.5999 15.7002 72.28 17.8702 73.73H17.8802C18.2402 73.99 18.6002 74.2199 18.9302 74.4199H18.9402C19.2402 74.5999 19.5202 74.7499 19.7702 74.8799C19.7702 74.8799 19.7802 74.8799 19.7902 74.8799C19.9002 74.9199 20.0202 74.9 20.1102 74.82C20.2102 74.72 20.2202 74.57 20.1502 74.4599C20.1402 74.4399 20.1202 74.42 20.1102 74.41C19.4902 73.61 18.9802 72.88 18.9002 72.75C17.0102 69.8299 15.4402 66.68 14.2402 63.35C12.9402 59.75 12.0902 55.93 11.7302 51.97C11.6102 50.6 11.5402 49.22 11.5402 47.82C11.5402 43.85 12.0502 39.99 13.0002 36.31C13.3802 34.86 13.8202 33.43 14.3302 32.04C14.3302 32.03 14.3302 32.02 14.3402 32.01C14.3702 31.91 14.3402 31.8 14.2702 31.72C14.1602 31.61 13.9802 31.61 13.8702 31.72C13.8702 31.72 13.8702 31.72 13.8602 31.72C13.8402 31.74 13.8202 31.77 13.8102 31.8V31.81Z" fill="#2C7DDE"/>
<path d="M15.4101 52.4301C15.7001 54.4301 16.1301 56.4201 16.6901 58.3801C18.6401 65.1801 22.2401 71.6001 27.5001 77.0201C27.6401 77.1701 27.7901 77.3101 27.9301 77.4601C28.6101 78.0801 29.4301 78.5501 30.3301 78.8201C30.5301 78.8701 30.7401 78.9201 30.9501 78.9701C33.8601 79.6401 36.8901 80.0001 40.0101 80.0001C42.7201 80.0001 45.3801 79.7301 47.9401 79.2101C47.9401 79.2101 47.9401 79.2101 47.9501 79.2101C48.3901 79.1301 48.8001 79.0401 49.1701 78.9401C49.5101 78.8501 49.8101 78.7601 50.0901 78.6701C50.0901 78.6701 50.1001 78.6701 50.1101 78.6701C50.2101 78.6301 50.2901 78.5201 50.2901 78.4001C50.2901 78.2601 50.1901 78.1501 50.0701 78.1201C50.0501 78.1201 50.0301 78.1201 50.0001 78.1201C48.9901 77.9901 48.1201 77.8301 47.9701 77.8001C44.5701 77.0701 41.2301 75.9601 38.0301 74.4501C34.5601 72.8201 31.2601 70.7301 28.2101 68.1801C27.1601 67.3001 26.1301 66.3701 25.1401 65.3801C22.3301 62.5701 19.9601 59.4801 18.0301 56.2101C17.2701 54.9201 16.5801 53.5901 15.9501 52.2501C15.9501 52.2401 15.9501 52.2301 15.9401 52.2201C15.8901 52.1301 15.7901 52.0601 15.6801 52.0601C15.5201 52.0601 15.4001 52.1801 15.3901 52.3401C15.3901 52.3401 15.3901 52.3501 15.3901 52.3601C15.3901 52.3901 15.3901 52.4201 15.4101 52.4501V52.4301Z" fill="#214584"/>
<path d="M31.9198 65.92C33.5398 67.13 35.2498 68.24 37.0298 69.22C43.2198 72.65 50.3098 74.64 57.8498 74.76C58.0498 74.76 58.2598 74.76 58.4598 74.76C59.3798 74.72 60.2898 74.48 61.1198 74.02C61.2998 73.91 61.4798 73.8 61.6598 73.69C64.1898 72.11 66.5898 70.22 68.7898 68.02C70.7098 66.1 72.3898 64.03 73.8398 61.86C73.8398 61.86 73.8398 61.86 73.8398 61.85C74.0898 61.49 74.3198 61.13 74.5198 60.8C74.6998 60.5 74.8498 60.21 74.9798 59.96C74.9798 59.96 74.9798 59.95 74.9798 59.94C75.0198 59.83 74.9998 59.71 74.9198 59.62C74.8198 59.52 74.6698 59.51 74.5598 59.58C74.5398 59.59 74.5198 59.61 74.5098 59.62C73.7098 60.24 72.9798 60.75 72.8498 60.83C69.9298 62.72 66.7798 64.29 63.4498 65.49C59.8498 66.79 56.0298 67.64 52.0698 68C50.6998 68.12 49.3198 68.19 47.9198 68.19C43.9498 68.19 40.0898 67.68 36.4098 66.73C34.9598 66.35 33.5298 65.91 32.1398 65.4C32.1298 65.4 32.1198 65.4 32.1098 65.39C32.0098 65.36 31.8998 65.39 31.8198 65.46C31.7098 65.57 31.7098 65.75 31.8198 65.86C31.8498 65.89 31.8698 65.9 31.8998 65.92H31.9198Z" fill="#2C7DDE"/>
<path d="M52.4298 64.41C54.4298 64.12 56.4198 63.69 58.3798 63.13C65.1798 61.18 71.5998 57.58 77.0198 52.32C77.1698 52.18 77.3098 52.03 77.4598 51.89C78.0798 51.21 78.5498 50.39 78.8198 49.49C78.8698 49.29 78.9198 49.08 78.9698 48.87C79.6398 45.96 79.9998 42.93 79.9998 39.81C79.9998 37.1 79.7298 34.44 79.2098 31.88C79.2098 31.88 79.2098 31.88 79.2098 31.87C79.1298 31.43 79.0398 31.02 78.9398 30.65C78.9398 30.65 78.9398 30.65 78.9398 30.64C78.8498 30.3 78.7598 30 78.6798 29.72C78.6798 29.72 78.6798 29.71 78.6798 29.7C78.6398 29.6 78.5298 29.52 78.4098 29.52C78.2698 29.52 78.1598 29.62 78.1298 29.74C78.1298 29.76 78.1298 29.78 78.1298 29.81C77.9998 30.82 77.8398 31.69 77.8098 31.84C77.0798 35.24 75.9698 38.58 74.4598 41.78C72.8298 45.25 70.7398 48.55 68.1898 51.6C67.3098 52.65 66.3798 53.68 65.3898 54.67C62.5798 57.48 59.4898 59.85 56.2198 61.78C54.9298 62.54 53.5998 63.23 52.2598 63.86C52.2498 63.86 52.2398 63.86 52.2298 63.87C52.1398 63.92 52.0698 64.02 52.0698 64.13C52.0698 64.29 52.1898 64.41 52.3498 64.42H52.3698C52.3698 64.42 52.4298 64.42 52.4598 64.4L52.4298 64.41Z" fill="#214584"/>
<path d="M66.1898 48.1901C67.3998 46.5701 68.5098 44.8601 69.4898 43.0801C72.9198 36.8901 74.9098 29.8001 75.0298 22.2601C75.0298 22.0601 75.0298 21.8501 75.0298 21.6501C74.9898 20.7301 74.7498 19.8201 74.2898 18.9901C74.1798 18.8101 74.0698 18.6301 73.9598 18.4501C72.3798 15.9201 70.4898 13.5201 68.2898 11.3201C66.3698 9.4001 64.2998 7.7201 62.1298 6.2701H62.1198C61.7598 6.0101 61.3998 5.7801 61.0698 5.5801H61.0598C60.7598 5.4001 60.4798 5.2501 60.2298 5.1201C60.2298 5.1201 60.2198 5.1201 60.2098 5.1201C60.0998 5.0801 59.9798 5.1001 59.8898 5.1801C59.7898 5.2801 59.7798 5.4301 59.8498 5.5401C59.8598 5.5601 59.8798 5.5801 59.8898 5.5901C60.5098 6.3901 61.0198 7.1201 61.0998 7.2501C62.9898 10.1701 64.5598 13.3201 65.7598 16.6501C67.0598 20.2501 67.9098 24.0701 68.2698 28.0301C68.3898 29.4001 68.4598 30.7801 68.4598 32.1801C68.4598 36.1501 67.9498 40.0101 66.9998 43.6901C66.6198 45.1401 66.1798 46.5701 65.6698 47.9601C65.6698 47.9701 65.6698 47.9801 65.6598 47.9901C65.6298 48.0901 65.6598 48.2001 65.7298 48.2801C65.8398 48.3901 66.0198 48.3901 66.1298 48.2801H66.1398C66.1398 48.2801 66.1798 48.2201 66.1898 48.1901Z" fill="#2C7DDE"/>
</g>
<defs>
<clipPath id="clip0_108_26355">
<rect width="406.1" height="121.98" fill="white"/>
</clipPath>
</defs>
</svg>
